<svg width="35" height="35" viewBox="0 0 35 35" fill="none" xmlns="http://www.w3.org/2000/svg">
<g id="Avatar">
<rect x="0.63638" y="0.361722" width="34.0018" height="34.0018" rx="17.0009" fill="white"/>
<rect x="0.63638" y="0.361722" width="34.0018" height="34.0018" rx="17.0009" stroke="#EDEBEB" stroke-width="0.723443"/>
<g id="Artboard 69">
<path id="Path" d="M29.2273 27.4757C22.3999 32.7327 12.8769 32.6906 6.09619 27.3736L11.066 25.044C11.3027 24.9327 11.5298 24.8022 11.7452 24.6538C11.8105 24.6089 11.8759 24.5619 11.9382 24.5129C12.4791 24.099 12.9243 23.5733 13.2435 22.9717C13.4848 22.5094 13.645 22.0092 13.7174 21.4928C13.7672 21.1577 13.7925 20.8194 13.7929 20.4806C13.7929 19.8964 13.7613 19.3122 13.7552 18.727C13.7511 18.4029 13.7477 18.0792 13.7449 17.7557L13.9492 17.8579L14.4803 18.1326L14.7264 18.1745L17.5739 18.6586L20.7523 19.1999L20.8483 22.4682L20.88 23.5365L20.8953 24.0553V24.089L22.1311 24.5915L29.2273 27.4757Z" fill="#DE8276"/>
<path id="Path_2" d="M20.8749 23.8858C20.5239 23.9462 20.1627 23.8902 19.8464 23.7265L13.7521 18.7444C13.745 18.5136 13.7389 18.7556 13.7358 18.5248C13.7317 18.2007 13.7283 17.8769 13.7256 17.5535L13.9299 17.6557L14.4609 17.9304L14.7071 17.9723L17.5546 18.4564L20.7329 18.9977L20.8289 22.266L20.8606 23.3343L20.8759 23.8531V23.8868L20.8749 23.8858Z" fill="#A76962"/>
<path id="Path_3" d="M24.0205 15.0053C23.8616 15.1714 23.6876 15.3222 23.5006 15.4557C22.4384 16.2248 21.0208 16.477 19.8095 16.8917C19.2988 17.0664 13.7612 18.6402 13.7612 18.9824C13.7612 18.9078 13.2189 18.3696 12.5356 17.7159C10.1789 15.4588 9.39326 12.0149 10.5379 8.95902C11.6521 6.03087 15.2043 4.01272 18.1795 3.54597C19.596 3.32434 21.2772 3.20076 22.5855 3.87994C23.2545 4.22822 23.8111 4.73582 24.3217 5.29857C24.4811 5.47628 24.6356 5.65774 24.7854 5.84294C24.8498 5.92056 24.9131 5.99818 24.9754 6.07683C27.301 8.99784 26.4768 12.4244 24.0205 15.0053Z" fill="url(#paint0_linear_1_4126)"/>
<path id="Path_4" d="M24.0208 15.0053C23.862 15.1714 23.6879 15.3222 23.5009 15.4557C23.4573 15.3797 23.4181 15.3013 23.3835 15.2208C23.1138 14.608 22.9749 13.9431 22.8728 13.2802C22.7137 12.3156 22.605 11.3434 22.547 10.3674C22.454 8.80069 21.7851 8.02345 23.1159 6.80194C23.5948 6.36303 24.1651 6.03584 24.7857 5.84393C24.8501 5.92155 24.9134 5.99918 24.9757 6.07782C27.3013 8.99781 26.4771 12.4244 24.0208 15.0053Z" fill="url(#paint1_linear_1_4126)"/>
<ellipse id="Oval" cx="12.7399" cy="14.8981" rx="1.73626" ry="1.73626" fill="#E18477"/>
<ellipse id="Oval_2" cx="13.2915" cy="14.898" rx="1.55447" ry="1.55447" fill="#A76962"/>
<path id="Path_5" d="M13.4212 13.2517C13.506 14.3609 13.5029 15.7151 13.5325 16.1114C13.6095 17.1048 13.6857 18.0979 13.7613 19.0906L20.547 23.0544C21.521 23.4185 22.6121 22.983 23.0677 22.0484C24.0441 20.0487 25.6108 16.8907 25.4045 15.7162C25.0981 13.9799 24.281 13.3671 24.281 13.3671L24.6211 11.3306C24.9653 9.26033 24.2555 7.3004 21.837 7.07366C21.3263 7.02668 20.7574 7.12371 20.4541 7.53122C19.637 8.63017 20.1079 9.98242 18.8813 11.0037C17.3921 12.2324 14.0698 12.7686 13.2915 11.7769C13.2915 11.7769 13.363 12.4786 13.4212 13.2517Z" fill="#DE8276"/>
<path id="Path_6" d="M18.5137 17.5842C19.0044 18.1322 19.6771 18.4838 20.4072 18.5738" stroke="#00214E" stroke-width="0.63978"/>
<path id="Path_7" d="M20.9258 12.7625C20.9176 12.7982 22.2903 16.4525 22.2903 16.4525L20.458 16.5414" stroke="#00214E" stroke-width="0.63978"/>
<path id="Path_8" d="M16.5874 12.0537C17.5329 11.8581 18.5054 11.8305 19.4604 11.972" stroke="#00214E" stroke-width="0.63978"/>
<path id="Path_9" d="M22.6184 12.0669C23.2021 11.9309 23.8038 11.8892 24.4006 11.9433" stroke="#00214E" stroke-width="0.63978"/>
<path id="Path_10" d="M29.2273 27.4758C22.3999 32.7327 12.8769 32.6906 6.09619 27.3736L11.066 25.044C11.3027 24.9327 11.5298 24.8022 11.7452 24.6538C11.8105 24.6089 11.8759 24.5619 11.9382 24.5129C12.4791 24.099 12.9243 23.5733 13.2435 22.9717C13.4848 22.5094 13.645 22.0092 13.7174 21.4928C13.7895 21.5627 13.8652 21.6288 13.9441 21.6909C14.5703 22.154 15.25 22.5401 15.9684 22.841C16.3172 22.9864 16.6738 23.1123 17.0367 23.2178C18.1299 23.5366 19.2714 23.6573 20.4071 23.5743C20.5644 23.562 20.7227 23.5467 20.88 23.5355L20.8953 24.0543V24.088L22.1311 24.5905L29.2273 27.4758Z" fill="#00214E"/>
<path id="Path_11" d="M17.9795 13.2016C18.6025 13.2016 18.6025 14.1596 17.9795 14.1647H17.9509C17.3269 14.1647 17.3269 13.2067 17.9509 13.2016H17.9785H17.9795Z" fill="#00214E"/>
<path id="Path_12" d="M23.0993 13.0597C23.6773 13.0648 23.6773 13.9482 23.0993 13.9533H23.0727C22.4946 13.9533 22.4946 13.0648 23.0727 13.0597H23.0993Z" fill="#00214E"/>
</g>
</g>
<defs>
<linearGradient id="paint0_linear_1_4126" x1="10.0129" y1="18.9864" x2="26.3521" y2="18.9864" gradientUnits="userSpaceOnUse">
<stop stop-color="#16243F"/>
<stop offset="1" stop-color="#6878B1"/>
</linearGradient>
<linearGradient id="paint1_linear_1_4126" x1="19.6362" y1="12.1624" x2="26.487" y2="14.1061" gradientUnits="userSpaceOnUse">
<stop stop-color="#16243F"/>
<stop offset="1" stop-color="#6878B1"/>
</linearGradient>
</defs>
</svg>
